<?xml version="1.0" standalone="no"?><svg xmlns="http://www.w3.org/2000/svg" viewBox="0 0 1440 320"><path fill="#5000ca" fill-opacity="1" d="M0,128L9.2,122.7C18.5,117,37,107,55,106.7C73.8,107,92,117,111,138.7C129.2,160,148,192,166,224C184.6,256,203,288,222,261.3C240,235,258,149,277,138.7C295.4,128,314,192,332,197.3C350.8,203,369,149,388,133.3C406.2,117,425,139,443,144C461.5,149,480,139,498,122.7C516.9,107,535,85,554,90.7C572.3,96,591,128,609,122.7C627.7,117,646,75,665,69.3C683.1,64,702,96,720,96C738.5,96,757,64,775,64C793.8,64,812,96,831,138.7C849.2,181,868,235,886,250.7C904.6,267,923,245,942,218.7C960,192,978,160,997,160C1015.4,160,1034,192,1052,218.7C1070.8,245,1089,267,1108,234.7C1126.2,203,1145,117,1163,69.3C1181.5,21,1200,11,1218,16C1236.9,21,1255,43,1274,48C1292.3,53,1311,43,1329,58.7C1347.7,75,1366,117,1385,160C1403.1,203,1422,245,1431,266.7L1440,288L1440,320L1430.8,320C1421.5,320,1403,320,1385,320C1366.2,320,1348,320,1329,320C1310.8,320,1292,320,1274,320C1255.4,320,1237,320,1218,320C1200,320,1182,320,1163,320C1144.6,320,1126,320,1108,320C1089.2,320,1071,320,1052,320C1033.8,320,1015,320,997,320C978.5,320,960,320,942,320C923.1,320,905,320,886,320C867.7,320,849,320,831,320C812.3,320,794,320,775,320C756.9,320,738,320,720,320C701.5,320,683,320,665,320C646.2,320,628,320,609,320C590.8,320,572,320,554,320C535.4,320,517,320,498,320C480,320,462,320,443,320C424.6,320,406,320,388,320C369.2,320,351,320,332,320C313.8,320,295,320,277,320C258.5,320,240,320,222,320C203.1,320,185,320,166,320C147.7,320,129,320,111,320C92.3,320,74,320,55,320C36.9,320,18,320,9,320L0,320Z"></path></svg>