<?xml version="1.0" standalone="no"?><svg xmlns="http://www.w3.org/2000/svg" viewBox="0 0 1440 320"><path fill="#5000ca" fill-opacity="1" d="M0,96L8.3,112C16.6,128,33,160,50,149.3C66.2,139,83,85,99,74.7C115.9,64,132,96,149,90.7C165.5,85,182,43,199,64C215.2,85,232,171,248,218.7C264.8,267,281,277,298,272C314.5,267,331,245,348,197.3C364.1,149,381,75,397,74.7C413.8,75,430,149,447,192C463.4,235,480,245,497,240C513.1,235,530,213,546,192C562.8,171,579,149,596,133.3C612.4,117,629,107,646,138.7C662.1,171,679,245,695,250.7C711.7,256,728,192,745,165.3C761.4,139,778,149,794,165.3C811,181,828,203,844,213.3C860.7,224,877,224,894,213.3C910.3,203,927,181,943,197.3C960,213,977,267,993,293.3C1009.7,320,1026,320,1043,266.7C1059.3,213,1076,107,1092,80C1109,53,1126,107,1142,117.3C1158.6,128,1175,96,1192,117.3C1208.3,139,1225,213,1241,234.7C1257.9,256,1274,224,1291,208C1307.6,192,1324,192,1341,176C1357.2,160,1374,128,1390,144C1406.9,160,1423,224,1432,256L1440,288L1440,320L1431.7,320C1423.4,320,1407,320,1390,320C1373.8,320,1357,320,1341,320C1324.1,320,1308,320,1291,320C1274.5,320,1258,320,1241,320C1224.8,320,1208,320,1192,320C1175.2,320,1159,320,1142,320C1125.5,320,1109,320,1092,320C1075.9,320,1059,320,1043,320C1026.2,320,1010,320,993,320C976.6,320,960,320,943,320C926.9,320,910,320,894,320C877.2,320,861,320,844,320C827.6,320,811,320,794,320C777.9,320,761,320,745,320C728.3,320,712,320,695,320C678.6,320,662,320,646,320C629,320,612,320,596,320C579.3,320,563,320,546,320C529.7,320,513,320,497,320C480,320,463,320,447,320C430.3,320,414,320,397,320C380.7,320,364,320,348,320C331,320,314,320,298,320C281.4,320,265,320,248,320C231.7,320,215,320,199,320C182.1,320,166,320,149,320C132.4,320,116,320,99,320C82.8,320,66,320,50,320C33.1,320,17,320,8,320L0,320Z"></path></svg>