<?xml version="1.0" standalone="no"?><svg xmlns="http://www.w3.org/2000/svg" viewBox="0 0 1440 320"><path fill="#5000ca" fill-opacity="1" d="M0,192L16,202.7C32,213,64,235,96,229.3C128,224,160,192,192,192C224,192,256,224,288,240C320,256,352,256,384,250.7C416,245,448,235,480,202.7C512,171,544,117,576,96C608,75,640,85,672,117.3C704,149,736,203,768,213.3C800,224,832,192,864,176C896,160,928,160,960,176C992,192,1024,224,1056,224C1088,224,1120,192,1152,192C1184,192,1216,224,1248,213.3C1280,203,1312,149,1344,149.3C1376,149,1408,203,1424,229.3L1440,256L1440,320L1424,320C1408,320,1376,320,1344,320C1312,320,1280,320,1248,320C1216,320,1184,320,1152,320C1120,320,1088,320,1056,320C1024,320,992,320,960,320C928,320,896,320,864,320C832,320,800,320,768,320C736,320,704,320,672,320C640,320,608,320,576,320C544,320,512,320,480,320C448,320,416,320,384,320C352,320,320,320,288,320C256,320,224,320,192,320C160,320,128,320,96,320C64,320,32,320,16,320L0,320Z"></path></svg>